<svg width="82" height="80" viewBox="0 0 82 80" fill="none" xmlns="http://www.w3.org/2000/svg">
<ellipse cx="25.9536" cy="25" rx="25.3991" ry="25" fill="#202231"/>
<g clip-path="url(#clip0_256_2604)">
<path d="M54.9242 48.2422H47.7807C46.7936 48.2422 45.9949 49.0284 45.9949 50V65.8203H42.4231C41.7464 65.8203 41.1291 66.1962 40.8256 66.7919C40.5239 67.3876 40.5884 68.1 40.9948 68.6321L49.9242 79.2962C50.2607 79.739 50.7909 80 51.3525 80C51.9141 80 52.4443 79.739 52.7808 79.2962L61.7102 68.6321C62.1166 68.1 62.1811 67.3876 61.8794 66.7919C61.5759 66.1962 60.9586 65.8203 60.2819 65.8203H56.7101V50C56.7101 49.0284 55.9114 48.2422 54.9242 48.2422Z" fill="#A47DE5"/>
<path d="M70.8177 37.6971C70.0835 34.1574 67.1623 31.3868 63.383 30.798C61.8238 24.6199 56.1191 20 49.5669 20C43.0285 20 37.3866 24.5512 35.7874 30.6778C35.6199 30.6692 35.4508 30.6641 35.2798 30.6641C27.4021 30.6641 20.8738 36.9726 20.8738 44.7266C20.8738 52.4805 27.4021 58.7891 35.2798 58.7891H42.4234V50C42.4234 47.0921 44.8267 44.7266 47.781 44.7266H54.9245C57.8788 44.7266 60.2821 47.0921 60.2821 50V58.7891H70.9974C76.9061 58.7891 81.8317 54.0581 81.8317 48.2422C81.8317 42.3679 76.8241 37.5512 70.8177 37.6971Z" fill="#A47DE5"/>
</g>
<defs>
<clipPath id="clip0_256_2604">
<rect width="60.9579" height="60" fill="white" transform="translate(20.8738 20)"/>
</clipPath>
</defs>
</svg>
