<svg width="84" height="80" viewBox="0 0 84 80" fill="none" xmlns="http://www.w3.org/2000/svg">
<ellipse cx="25.569" cy="25" rx="25.3991" ry="25" fill="#202231"/>
<g clip-path="url(#clip0_256_2593)">
<path d="M56.2466 48.7615C56.9489 48.408 57.7312 48.2211 58.5429 48.2211C59.888 48.2211 61.1525 48.7351 62.1058 49.6685L64.1579 47.6488C69.2362 49.4009 75.1097 48.2792 79.1694 44.2835C82.5853 40.9213 83.9324 36.2954 83.2133 31.9349C83.1341 31.4547 82.7887 31.0586 82.3185 30.9092C81.8483 30.7596 81.3322 30.8812 80.9828 31.2252L77.9358 34.2243C75.4545 36.6667 71.4312 36.6667 68.9498 34.2243C66.4683 31.782 66.4683 27.8219 68.9498 25.3796L71.9968 22.3805C72.3464 22.0364 72.471 21.5284 72.3187 21.0653C72.1667 20.6021 71.7637 20.263 71.2756 20.185C66.8457 19.4772 62.1457 20.8031 58.7301 24.1653C54.61 28.2206 53.5012 34.114 55.3961 39.1626L50.9454 43.5434L56.2466 48.7615Z" fill="#A47DE5"/>
<path d="M48.1364 56.6997L42.8574 51.5037L24.3982 69.6726C21.998 72.0351 21.998 75.8654 24.3982 78.228C26.7984 80.5905 30.6899 80.5905 33.0901 78.228L49.0031 62.5652C47.3981 60.977 47.1089 58.5793 48.1364 56.6997Z" fill="#A47DE5"/>
<path d="M59.9105 51.8488C59.5331 51.4773 59.0381 51.2914 58.5434 51.2914C58.0487 51.2914 57.5538 51.4773 57.1763 51.8488L56.0744 52.9335L36.445 33.6125L37.3625 32.7095C38.1985 31.8868 38.0947 30.5222 37.1418 29.8315L29.133 24.026C28.3634 23.4682 27.2953 23.5474 26.6195 24.2127L23.219 27.5599C22.5431 28.2252 22.4627 29.2766 23.0293 30.034L28.9274 37.9169C29.629 38.8546 31.0146 38.9578 31.8512 38.1341L32.7687 37.2308L52.3981 56.5517L51.2186 57.7127C50.4635 58.4559 50.4635 59.6607 51.2186 60.404L69.3272 78.228C71.7274 80.5905 75.6189 80.5905 78.0191 78.228C80.4193 75.8655 80.4193 72.0351 78.0191 69.6726L59.9105 51.8488Z" fill="#A47DE5"/>
</g>
<defs>
<clipPath id="clip0_256_2593">
<rect width="60.9579" height="60" fill="white" transform="translate(22.521 20)"/>
</clipPath>
</defs>
</svg>
